<mxfile host="app.diagrams.net" agent="Mozilla/5.0 (Windows NT 10.0; Win64; x64) AppleWebKit/537.36 (KHTML, like Gecko) Chrome/138.0.0.0 Safari/537.36" version="27.2.0">
  <diagram name="Page-1" id="CTn788GPUmhEUFWfQ9N9">
    <mxGraphModel dx="1042" dy="623" grid="1" gridSize="10" guides="1" tooltips="1" connect="1" arrows="1" fold="1" page="1" pageScale="1" pageWidth="850" pageHeight="1100" math="0" shadow="0">
      <root>
        <mxCell id="0" />
        <mxCell id="1" parent="0" />
        <mxCell id="-OvHN2gl2Yb3IGfOkLGe-3" style="edgeStyle=orthogonalEdgeStyle;rounded=0;orthogonalLoop=1;jettySize=auto;html=1;exitX=0.5;exitY=1;exitDx=0;exitDy=0;exitPerimeter=0;entryX=0.5;entryY=0;entryDx=0;entryDy=0;" edge="1" parent="1" source="-OvHN2gl2Yb3IGfOkLGe-1" target="-OvHN2gl2Yb3IGfOkLGe-2">
          <mxGeometry relative="1" as="geometry" />
        </mxCell>
        <mxCell id="-OvHN2gl2Yb3IGfOkLGe-1" value="AS400" style="shape=cylinder3;whiteSpace=wrap;html=1;boundedLbl=1;backgroundOutline=1;size=15;" vertex="1" parent="1">
          <mxGeometry x="380" y="80" width="60" height="80" as="geometry" />
        </mxCell>
        <mxCell id="-OvHN2gl2Yb3IGfOkLGe-7" style="edgeStyle=orthogonalEdgeStyle;rounded=0;orthogonalLoop=1;jettySize=auto;html=1;exitX=0.5;exitY=1;exitDx=0;exitDy=0;entryX=0.5;entryY=0;entryDx=0;entryDy=0;" edge="1" parent="1" source="-OvHN2gl2Yb3IGfOkLGe-2" target="-OvHN2gl2Yb3IGfOkLGe-4">
          <mxGeometry relative="1" as="geometry" />
        </mxCell>
        <mxCell id="-OvHN2gl2Yb3IGfOkLGe-8" style="edgeStyle=orthogonalEdgeStyle;rounded=0;orthogonalLoop=1;jettySize=auto;html=1;exitX=0.5;exitY=1;exitDx=0;exitDy=0;" edge="1" parent="1" source="-OvHN2gl2Yb3IGfOkLGe-2" target="-OvHN2gl2Yb3IGfOkLGe-5">
          <mxGeometry relative="1" as="geometry" />
        </mxCell>
        <mxCell id="-OvHN2gl2Yb3IGfOkLGe-9" style="edgeStyle=orthogonalEdgeStyle;rounded=0;orthogonalLoop=1;jettySize=auto;html=1;exitX=0.5;exitY=1;exitDx=0;exitDy=0;entryX=0.5;entryY=0;entryDx=0;entryDy=0;" edge="1" parent="1" source="-OvHN2gl2Yb3IGfOkLGe-2" target="-OvHN2gl2Yb3IGfOkLGe-6">
          <mxGeometry relative="1" as="geometry" />
        </mxCell>
        <mxCell id="-OvHN2gl2Yb3IGfOkLGe-2" value="snaplogic" style="rounded=1;whiteSpace=wrap;html=1;" vertex="1" parent="1">
          <mxGeometry x="305" y="240" width="210" height="60" as="geometry" />
        </mxCell>
        <mxCell id="-OvHN2gl2Yb3IGfOkLGe-4" value="GetClaimHistoryAPI" style="rounded=1;whiteSpace=wrap;html=1;" vertex="1" parent="1">
          <mxGeometry x="160" y="400" width="120" height="60" as="geometry" />
        </mxCell>
        <mxCell id="-OvHN2gl2Yb3IGfOkLGe-5" value="GetPolicyLimitAPI" style="rounded=1;whiteSpace=wrap;html=1;" vertex="1" parent="1">
          <mxGeometry x="350" y="400" width="120" height="60" as="geometry" />
        </mxCell>
        <mxCell id="-OvHN2gl2Yb3IGfOkLGe-6" value="CreateClaimAPI" style="rounded=1;whiteSpace=wrap;html=1;" vertex="1" parent="1">
          <mxGeometry x="560" y="400" width="120" height="60" as="geometry" />
        </mxCell>
      </root>
    </mxGraphModel>
  </diagram>
</mxfile>
